<svg width="215" height="28" viewBox="0 0 215 28" fill="none" xmlns="http://www.w3.org/2000/svg">
<path d="M11.9063 14.7812L19.5938 2.1875H14.7813L9.78125 11L4.8125 2.1875H0L7.6875 14.7812V21.9375H11.9063V14.7812Z" fill="#FF3030"/>
<path d="M32.9902 21.9375V12.2188C32.9902 7.34375 30.0215 5.84375 26.3027 5.84375C23.9277 5.84375 21.834 6.1875 20.084 6.75V10.5C21.2715 9.90625 23.1777 9.3125 25.709 9.3125C27.209 9.3125 28.8652 9.75 28.8652 11.6875V12.25C27.9277 11.875 26.334 11.6562 25.084 11.6562C21.5215 11.6562 18.3965 13.1563 18.3965 17.125C18.3965 19.7813 20.209 22.2812 23.5215 22.2812C26.3027 22.2812 27.9902 21.6875 29.4902 19.7813L29.8965 21.9375H32.9902ZM28.8652 17C28.0527 18.375 26.5215 19.125 25.1152 19.125C23.584 19.125 22.709 18.2188 22.709 17.0312C22.709 15.3125 23.7715 14.5 26.0215 14.5C27.1465 14.5 28.1152 14.75 28.8652 15.2188V17Z" fill="#FF3030"/>
<path d="M36.561 21.9375H40.8735V11.5313C41.6235 10.2188 42.7798 9.40625 44.2798 9.3125C45.8735 9.3125 47.061 9.9375 47.061 12.4063V21.9375H51.3735V11.5937C51.3735 7.8125 49.1235 5.84375 45.8735 5.84375C43.7485 5.84375 41.5298 6.4375 40.3735 8.9375V6.375H36.561V21.9375Z" fill="#FF3030"/>
<path d="M66.5444 8.09375C65.3257 6.53125 63.4194 5.84375 61.5132 5.84375C57.9507 5.84375 53.9507 8.53125 53.9507 14.0938C53.9507 18.5938 56.5132 22.25 61.1694 22.25C63.1694 22.25 64.7632 21.6875 66.2007 20.3125V20.7188C66.2007 24.125 62.8257 24.3125 61.2632 24.3125C59.2319 24.3125 57.6382 23.8125 55.8882 22.875V26.6562C57.3882 27.5312 59.2319 28 61.7007 28C66.3257 28 70.3257 25.5313 70.3882 19.4688V6.375H66.7944L66.5444 8.09375ZM62.2319 9.34375C63.5444 9.34375 64.9819 9.90625 66.2007 11.0313V16.5938C65.2007 18.25 63.6069 18.8438 62.1069 18.8438C59.4819 18.8438 58.2944 16.625 58.2944 14.2188C58.2944 11.25 59.5757 9.34375 62.2319 9.34375Z" fill="#FF3030"/>
<path d="M74.2864 21.9375H78.6301V6.375H74.2864V21.9375ZM73.9426 2.46875C73.9426 3.875 75.0676 4.96875 76.4426 4.96875C77.8489 4.96875 78.9426 3.84375 78.9426 2.46875C78.9426 1.09375 77.8489 0 76.4426 0C75.0676 0 73.9426 1.09375 73.9426 2.46875Z" fill="#FF3030"/>
<path d="M92.7378 0.0117188H86.6895L97.2283 12.6125L86.6895 25.2133H92.7378L103.071 12.6125L92.7378 0.0117188Z" fill="#FF3030"/>
<path d="M119.648 9.6875V6.375H115.179C115.179 4.21875 116.554 3.90625 117.961 3.90625C118.804 3.90625 119.648 4.0625 120.429 4.28125V0.812499C119.336 0.624999 118.336 0.5625 117.367 0.5625C114.242 0.5625 110.804 1.375 110.804 7.1875V21.9375H115.179V9.6875H119.648Z" fill="#212121"/>
<path d="M122.547 21.9375H126.891V6.375H122.547V21.9375ZM122.203 2.46875C122.203 3.875 123.328 4.96875 124.703 4.96875C126.109 4.96875 127.203 3.84375 127.203 2.46875C127.203 1.09375 126.109 0 124.703 0C123.328 0 122.203 1.09375 122.203 2.46875Z" fill="#212121"/>
<path d="M130.615 21.9375H134.928V11.5313C135.678 10.2188 136.834 9.40625 138.334 9.3125C139.928 9.3125 141.115 9.9375 141.115 12.4063V21.9375H145.428V11.5938C145.428 7.8125 143.178 5.84375 139.928 5.84375C137.803 5.84375 135.584 6.4375 134.428 8.9375V6.375H130.615V21.9375Z" fill="#212121"/>
<path d="M162.599 21.9375V12.2188C162.599 7.34375 159.63 5.84375 155.911 5.84375C153.536 5.84375 151.442 6.1875 149.692 6.75V10.5C150.88 9.90625 152.786 9.3125 155.317 9.3125C156.817 9.3125 158.474 9.75 158.474 11.6875V12.25C157.536 11.875 155.942 11.6563 154.692 11.6563C151.13 11.6563 148.005 13.1563 148.005 17.125C148.005 19.7813 149.817 22.2813 153.13 22.2813C155.911 22.2813 157.599 21.6875 159.099 19.7813L159.505 21.9375H162.599ZM158.474 17C157.661 18.375 156.13 19.125 154.724 19.125C153.192 19.125 152.317 18.2188 152.317 17.0313C152.317 15.3125 153.38 14.5 155.63 14.5C156.755 14.5 157.724 14.75 158.474 15.2188V17Z" fill="#212121"/>
<path d="M166.169 21.9375H170.482V11.5313C171.232 10.2188 172.388 9.40625 173.888 9.3125C175.482 9.3125 176.669 9.9375 176.669 12.4063V21.9375H180.982V11.5938C180.982 7.8125 178.732 5.84375 175.482 5.84375C173.357 5.84375 171.138 6.4375 169.982 8.9375V6.375H166.169V21.9375Z" fill="#212121"/>
<path d="M196.621 6.6875C195.371 6.09375 193.371 5.84375 192.121 5.84375C186.871 5.84375 183.559 9.21875 183.559 14.25C183.559 19.4063 187.215 22.4688 191.965 22.4688C193.371 22.4688 195.371 22.1875 196.809 21.4688V17.7188C195.496 18.5 193.59 18.8125 191.996 18.8125C189.653 18.8125 187.965 17.0938 187.965 14.125C187.965 11.0938 189.559 9.46875 192.465 9.46875C194.028 9.46875 195.715 9.875 196.621 10.4375V6.6875Z" fill="#212121"/>
<path d="M212.874 18C211.186 18.5313 209.436 18.9688 207.874 18.9688C205.217 18.9688 203.092 18.125 202.749 15.9375H213.999C214.092 15.3125 214.186 14.3125 214.186 13.6563C214.186 9.59375 212.186 5.875 206.717 5.875C202.467 5.875 198.467 8.5 198.467 14.0938C198.467 18.75 201.155 22.4688 207.342 22.4688C209.28 22.4688 211.499 22.1563 212.874 21.375V18ZM202.592 13.0938C202.78 10.7813 204.342 9.40625 206.717 9.40625C208.717 9.40625 210.092 10.5938 210.092 13.0938H202.592Z" fill="#212121"/>
</svg>
