<svg width="83" height="60" viewBox="0 0 83 60" fill="none" xmlns="http://www.w3.org/2000/svg">
<path d="M5.00378 35.0293V22.4121L35.6628 39.7587C40.2212 42.3377 45.7947 42.3525 50.3666 39.7976L77.0038 24.9121V37.9785C77.0038 39.7899 76.0241 41.4596 74.4429 42.3432L50.4523 55.7497C45.8341 58.3305 40.1979 58.2876 35.6194 55.637L7.4986 39.3565C5.95452 38.4625 5.00378 36.8135 5.00378 35.0293Z" fill="#DE132A"/>
<rect width="49.36" height="45.376" rx="10" transform="matrix(0.866025 0.5 -0.866025 0.5 39.2968 0)" fill="#FF3030"/>
<path d="M44.4375 25.656L27.1447 23.016L20.7846 26.688L51.0886 30.552L52.9176 29.496L46.225 12L39.8649 15.672L44.4375 25.656Z" fill="white"/>
</svg>
