<svg width="63" height="48" viewBox="0 0 63 48" fill="none" xmlns="http://www.w3.org/2000/svg">
<path d="M5 30.5635V18L23.6379 29.1111C28.1999 31.8307 33.8598 31.9352 38.5191 29.3858L57.5 19V30.9866C57.5 32.8402 56.4746 34.5417 54.8356 35.4076L38.2005 44.196C33.7097 46.5684 28.3234 46.5073 23.8877 44.0335L7.56466 34.9303C5.98132 34.0473 5 32.3764 5 30.5635Z" fill="#DE132A"/>
<rect width="37.5087" height="34.5782" rx="10" transform="matrix(0.866025 0.5 -0.866025 0.5 29.9456 0)" fill="#FF3030"/>
<path d="M32.2792 18.6364L21.3428 16.9668L17.3205 19.2891L36.4855 21.7328L37.6423 21.065L33.4097 10L29.3874 12.3223L32.2792 18.6364Z" fill="white"/>
</svg>
