<svg width="24" height="24" viewBox="0 0 24 24" fill="none" xmlns="http://www.w3.org/2000/svg">
<path d="M14.9984 4.18979C15.3902 3.7541 15.6889 3.24802 15.8774 2.70062C16.0659 2.15323 16.1405 1.57529 16.0969 1C14.8941 1.09368 13.7776 1.63951 12.9879 2.5199C12.6098 2.94185 12.3232 3.43272 12.1452 3.96345C11.9672 4.49418 11.9014 5.05397 11.9516 5.60969C12.5383 5.61441 13.1183 5.4888 13.6466 5.24258C14.1749 4.99636 14.6375 4.63613 14.9984 4.18979ZM17.6099 11.6293C17.6168 10.8631 17.826 10.1112 18.2177 9.44464C18.6093 8.77807 19.1705 8.21878 19.8483 7.81955C19.4206 7.22482 18.8551 6.73445 18.1967 6.38732C17.5383 6.04018 16.8052 5.84583 16.0554 5.81968C14.4388 5.65969 12.9465 6.72962 12.0864 6.72962C11.2262 6.72962 10.0137 5.83968 8.66652 5.85968C7.78579 5.88767 6.92761 6.13544 6.17569 6.57881C5.42377 7.02219 4.80378 7.64604 4.37619 8.38951C2.55228 11.4493 3.90985 15.999 5.73376 18.4688C6.56281 19.6788 7.59912 21.0487 8.96705 20.9987C10.335 20.9487 10.7806 20.1787 12.3662 20.1787C13.9517 20.1787 14.4388 20.9987 15.786 20.9687C17.1332 20.9387 18.0866 19.7288 18.9571 18.5188C19.5737 17.6404 20.0554 16.6805 20.3872 15.669C19.5659 15.3311 18.8652 14.7684 18.3716 14.0504C17.878 13.3325 17.6132 12.4908 17.6099 11.6293Z" fill="white"/>
</svg>
