<svg width="267" height="118" viewBox="0 0 267 118" fill="none" xmlns="http://www.w3.org/2000/svg">
<mask id="path-1-inside-1_19_4024" fill="white">
<path fill-rule="evenodd" clip-rule="evenodd" d="M221.683 19.5C223.149 7.98786 240.803 0.505653 252.629 0C247.896 3.18226 239.582 11.4491 243.372 19.5H251.129C259.413 19.5 266.129 26.2157 266.129 34.5V102.5C266.129 110.784 259.413 117.5 251.129 117.5H15.1289C6.84464 117.5 0.128906 110.784 0.128906 102.5V34.5C0.128906 26.2157 6.84464 19.5 15.1289 19.5H221.683Z"/>
</mask>
<path fill-rule="evenodd" clip-rule="evenodd" d="M221.683 19.5C223.149 7.98786 240.803 0.505653 252.629 0C247.896 3.18226 239.582 11.4491 243.372 19.5H251.129C259.413 19.5 266.129 26.2157 266.129 34.5V102.5C266.129 110.784 259.413 117.5 251.129 117.5H15.1289C6.84464 117.5 0.128906 110.784 0.128906 102.5V34.5C0.128906 26.2157 6.84464 19.5 15.1289 19.5H221.683Z" fill="#FF3030"/>
<path d="M252.629 0L253.187 0.829877L256.133 -1.15073L252.586 -0.999087L252.629 0ZM221.683 19.5V20.5H222.564L222.675 19.6264L221.683 19.5ZM243.372 19.5L242.467 19.9259L242.738 20.5H243.372V19.5ZM252.586 -0.999087C246.514 -0.739452 238.993 1.30204 232.786 4.74828C226.617 8.17336 221.485 13.1392 220.691 19.3736L222.675 19.6264C223.347 14.3487 227.776 9.81733 233.756 6.49686C239.699 3.19755 246.918 1.2451 252.672 0.999087L252.586 -0.999087ZM244.277 19.0741C242.586 15.4831 243.547 11.7812 245.649 8.45898C247.753 5.13502 250.902 2.36593 253.187 0.829877L252.071 -0.829877C249.622 0.81633 246.249 3.77179 243.959 7.38954C241.669 11.009 240.368 15.466 242.467 19.9259L244.277 19.0741ZM243.372 20.5H251.129V18.5H243.372V20.5ZM251.129 20.5C258.861 20.5 265.129 26.768 265.129 34.5H267.129C267.129 25.6634 259.965 18.5 251.129 18.5V20.5ZM265.129 34.5V102.5H267.129V34.5H265.129ZM265.129 102.5C265.129 110.232 258.861 116.5 251.129 116.5V118.5C259.965 118.5 267.129 111.337 267.129 102.5H265.129ZM251.129 116.5H15.1289V118.5H251.129V116.5ZM15.1289 116.5C7.39692 116.5 1.12891 110.232 1.12891 102.5H-0.871094C-0.871094 111.337 6.29235 118.5 15.1289 118.5V116.5ZM1.12891 102.5V34.5H-0.871094V102.5H1.12891ZM1.12891 34.5C1.12891 26.768 7.39692 20.5 15.1289 20.5V18.5C6.29235 18.5 -0.871094 25.6634 -0.871094 34.5H1.12891ZM15.1289 20.5H221.683V18.5H15.1289V20.5Z" fill="black" mask="url(#path-1-inside-1_19_4024)"/>
</svg>
