<svg width="24" height="24" viewBox="0 0 24 24" fill="none" xmlns="http://www.w3.org/2000/svg">
<path fill-rule="evenodd" clip-rule="evenodd" d="M4.35086 20.41L12.7727 12.008L4.35086 3.58984C4.14344 3.9246 4 4.46675 4 5.24774V12.008V18.7518C4 19.5329 4.14344 20.075 4.35086 20.41Z" fill="white"/>
<path fill-rule="evenodd" clip-rule="evenodd" d="M5.37152 3L13.57 11.2106L16.3295 8.43656L7.73216 3.78107C6.75928 3.25513 6.15318 3 5.45147 3C5.41933 3 5.38745 3 5.37152 3Z" fill="white"/>
<path fill-rule="evenodd" clip-rule="evenodd" d="M17.3657 8.99463L14.3671 12.0081L17.3657 15.0054L19.184 14.0168C19.8538 13.6499 20.8748 12.9803 20.8748 12.0081C20.8748 11.0195 19.8538 10.3499 19.184 9.98301L17.3657 8.99463Z" fill="white"/>
<path fill-rule="evenodd" clip-rule="evenodd" d="M16.3295 15.563L13.57 12.7893L5.37152 21.0001C5.38748 21.0001 5.41933 21.0001 5.45147 21.0001C6.15315 21.0001 6.75928 20.7447 7.73216 20.2186L16.3295 15.563Z" fill="white"/>
</svg>
