<svg width="163" height="96" viewBox="0 0 163 96" fill="none" xmlns="http://www.w3.org/2000/svg">
<path d="M26.4999 65.1804V53.5L63.0404 74.2617C67.6621 76.8876 73.3284 76.8715 77.935 74.2192L136.5 40.5V51.7563C136.5 55.313 134.611 58.602 131.539 60.3941L77.9595 91.6486C73.3417 94.3423 67.6394 94.3747 62.9913 91.7337L31.5598 73.8749C28.4321 72.0978 26.4999 68.7777 26.4999 65.1804Z" fill="#FFC612"/>
<g clip-path="url(#clip0_19_3326)">
<path d="M134.742 37.2759L98.2491 16.207C96.7601 15.3473 94.7406 14.8643 92.6348 14.8643C90.5291 14.8643 88.5096 15.3473 87.0206 16.207L28.0711 50.2414C26.5821 51.1011 25.7456 52.2671 25.7456 53.4828C25.7456 54.6986 26.5821 55.8645 28.0711 56.7242L64.5637 77.7932C66.0526 78.6528 68.0721 79.1358 70.1779 79.1358C72.2836 79.1358 74.3031 78.6528 75.7921 77.7932L134.742 43.7587C136.231 42.899 137.067 41.7331 137.067 40.5173C137.067 39.3015 136.231 38.1356 134.742 37.2759ZM60.353 42.9483C60.9059 43.2678 61.3445 43.647 61.6436 44.0643C61.9427 44.4816 62.0965 44.9289 62.0963 45.3805C62.096 45.8322 61.9417 46.2793 61.6421 46.6965C61.3425 47.1137 60.9035 47.4928 60.3502 47.812C59.7969 48.1313 59.14 48.3845 58.4172 48.5572C57.6944 48.7299 56.9198 48.8187 56.1375 48.8185C55.3553 48.8184 54.5807 48.7293 53.8581 48.5563C53.1355 48.3833 52.479 48.1299 51.926 47.8104C50.8093 47.1652 50.1822 46.2903 50.1827 45.3782C50.1832 44.4661 50.8113 43.5915 51.9288 42.9467C53.0463 42.302 54.5616 41.9399 56.1415 41.9402C57.7213 41.9405 59.2362 42.3032 60.353 42.9483ZM65.9672 34.8449C67.0847 34.2001 68.6 33.8381 70.1799 33.8384C71.7597 33.8387 73.2746 34.2013 74.3914 34.8465C75.5081 35.4917 76.1352 36.3666 76.1347 37.2787C76.1341 38.1908 75.506 39.0655 74.3886 39.7102C73.2711 40.355 71.7557 40.717 70.1759 40.7167C68.5961 40.7164 67.0811 40.3538 65.9644 39.7086C64.8477 39.0634 64.2206 38.1885 64.2211 37.2764C64.2216 36.3643 64.8497 35.4896 65.9672 34.8449ZM51.9316 64.0173L37.896 55.9139C36.7793 55.2691 36.1519 54.3946 36.1519 53.4828C36.1519 52.571 36.7793 51.6965 37.896 51.0518C39.0128 50.407 40.5274 50.0448 42.1067 50.0448C43.686 50.0448 45.2007 50.407 46.3174 51.0518L60.353 59.1552C61.4697 59.8 62.0971 60.6745 62.0971 61.5863C62.0971 62.4981 61.4697 63.3726 60.353 64.0173C59.2362 64.6621 57.7216 65.0243 56.1423 65.0243C54.563 65.0243 53.0484 64.6621 51.9316 64.0173ZM65.9672 55.9139C65.4143 55.5944 64.9757 55.2152 64.6766 54.7979C64.3775 54.3806 64.2237 53.9333 64.2239 53.4817C64.2242 53.03 64.3785 52.5829 64.6781 52.1657C64.9777 51.7485 65.4167 51.3694 65.97 51.0502C66.5233 50.7309 67.1802 50.4777 67.903 50.305C68.6258 50.1323 69.4004 50.0435 70.1827 50.0437C70.9649 50.0438 71.7395 50.1329 72.4621 50.3059C73.1847 50.4789 73.8412 50.7323 74.3942 51.0518C75.5109 51.697 76.138 52.5718 76.1375 53.484C76.1369 54.3961 75.5089 55.2707 74.3914 55.9155C73.2739 56.5602 71.7585 56.9223 70.1787 56.922C68.5989 56.9217 67.084 56.559 65.9672 55.9139ZM80.0028 47.8104C78.8861 47.1652 78.259 46.2903 78.2595 45.3782C78.26 44.4661 78.8881 43.5915 80.0056 42.9467C81.1231 42.302 82.6384 41.9399 84.2183 41.9402C85.7981 41.9405 87.313 42.3032 88.4298 42.9483C89.5465 43.5935 90.1736 44.4684 90.1731 45.3805C90.1725 46.2926 89.5444 47.1673 88.427 47.812C87.3095 48.4568 85.7941 48.8188 84.2143 48.8185C82.6345 48.8182 81.1195 48.4556 80.0028 47.8104ZM65.9672 72.1208C64.8505 71.4756 64.2234 70.6007 64.2239 69.6886C64.2244 68.7765 64.8525 67.9018 65.97 67.2571C67.0875 66.6123 68.6028 66.2503 70.1827 66.2506C71.7625 66.2509 73.2774 66.6135 74.3942 67.2587C74.9471 67.5781 75.3857 67.9574 75.6848 68.3747C75.9839 68.792 76.1377 69.2392 76.1375 69.6909C76.1372 70.1425 75.9829 70.5897 75.6833 71.0069C75.3837 71.4241 74.9447 71.8031 74.3914 72.1224C73.838 72.4416 73.1812 72.6948 72.4584 72.8675C71.7356 73.0402 70.961 73.129 70.1787 73.1289C69.3965 73.1287 68.6219 73.0396 67.8993 72.8666C67.1767 72.6937 66.5202 72.4402 65.9672 72.1208ZM80.0028 64.0173C79.4498 63.6978 79.0113 63.3186 78.7122 62.9013C78.4131 62.484 78.2592 62.0368 78.2595 61.5851C78.2598 61.1335 78.4141 60.6863 78.7137 60.2691C79.0133 59.8519 79.4523 59.4729 80.0056 59.1536C80.5589 58.8344 81.2157 58.5812 81.9385 58.4085C82.6614 58.2358 83.436 58.147 84.2183 58.1471C85.0005 58.1473 85.7751 58.2364 86.4977 58.4094C87.2203 58.5823 87.8768 58.8358 88.4298 59.1552C89.5465 59.8004 90.1736 60.6753 90.1731 61.5874C90.1725 62.4995 89.5444 63.3742 88.427 64.0189C87.3095 64.6637 85.7941 65.0257 84.2143 65.0254C82.6345 65.0251 81.1195 64.6625 80.0028 64.0173ZM94.0384 55.9139C92.9216 55.2687 92.2946 54.3938 92.2951 53.4817C92.2956 52.5696 92.9237 51.6949 94.0412 51.0502C95.1587 50.4054 96.674 50.0434 98.2539 50.0437C99.8337 50.044 101.349 50.4066 102.465 51.0518C103.582 51.697 104.209 52.5718 104.209 53.484C104.208 54.3961 103.58 55.2707 102.463 55.9155C101.345 56.5602 99.8297 56.9223 98.2499 56.922C96.67 56.9217 95.1551 56.559 94.0384 55.9139ZM117.899 47.0001C116.41 47.8597 114.39 48.3427 112.285 48.3427C110.179 48.3427 108.159 47.8597 106.67 47.0001L81.4064 32.4139C79.9174 31.5542 79.0809 30.3882 79.0809 29.1725C79.0809 27.9567 79.9174 26.7908 81.4064 25.9311L87.0206 22.6897C88.5096 21.83 90.5291 21.3471 92.6348 21.3471C94.7406 21.3471 96.7601 21.83 98.2491 22.6897L123.513 37.2759C125.002 38.1356 125.839 39.3015 125.839 40.5173C125.839 41.7331 125.002 42.899 123.513 43.7587L117.899 47.0001Z" fill="#FFD962"/>
</g>
<defs>
<clipPath id="clip0_19_3326">
<rect width="94" height="94" fill="white" transform="matrix(0.866025 0.5 -0.866025 0.5 81.4064 0)"/>
</clipPath>
</defs>
</svg>
