<svg width="74" height="44" viewBox="0 0 74 44" fill="none" xmlns="http://www.w3.org/2000/svg">
<path d="M12.0454 29.3606V24.3165L24.5844 31.4409C29.2061 34.0668 34.8724 34.0507 39.479 31.3984L62.0415 18.4078V23.2627C62.0415 25.041 61.0969 26.6855 59.5608 27.5815L34.5304 42.1827C32.9911 43.0805 31.0903 43.0914 29.541 42.211L14.5754 33.7079C13.0115 32.8193 12.0454 31.1592 12.0454 29.3606Z" fill="#FFC612"/>
<g clip-path="url(#clip0_15_1637)">
<path d="M61.2414 16.9422L44.6552 7.36618C43.9785 6.97546 43.0606 6.75595 42.1035 6.75595C41.1464 6.75595 40.2286 6.97546 39.5518 7.36618L12.7587 22.8352C12.0819 23.2259 11.7017 23.7559 11.7017 24.3084C11.7017 24.861 12.0819 25.3909 12.7587 25.7817L29.3449 35.3577C30.0217 35.7484 30.9395 35.968 31.8966 35.968C32.8537 35.968 33.7716 35.7484 34.4483 35.3577L61.2414 19.8887C61.9182 19.498 62.2984 18.968 62.2984 18.4155C62.2984 17.8629 61.9182 17.333 61.2414 16.9422ZM27.4311 19.5204C27.6824 19.6656 27.8817 19.838 28.0177 20.0276C28.1537 20.2173 28.2236 20.4206 28.2234 20.6259C28.2233 20.8311 28.1532 21.0344 28.017 21.224C27.8808 21.4136 27.6813 21.5859 27.4298 21.731C27.1783 21.8761 26.8798 21.9912 26.5513 22.0697C26.2228 22.1482 25.8707 22.1885 25.5151 22.1885C25.1596 22.1884 24.8075 22.1479 24.4791 22.0693C24.1507 21.9907 23.8523 21.8755 23.601 21.7303C23.0934 21.437 22.8084 21.0394 22.8086 20.6248C22.8089 20.2102 23.0943 19.8127 23.6022 19.5197C24.1101 19.2266 24.7989 19.0621 25.5169 19.0622C26.235 19.0623 26.9235 19.2272 27.4311 19.5204ZM29.9828 15.8373C30.4907 15.5443 31.1795 15.3797 31.8975 15.3798C32.6156 15.38 33.3041 15.5448 33.8117 15.838C34.3193 16.1313 34.6043 16.5289 34.604 16.9435C34.6038 17.3581 34.3183 17.7556 33.8104 18.0486C33.3025 18.3417 32.6138 18.5062 31.8957 18.5061C31.1777 18.506 30.4891 18.3411 29.9815 18.0479C29.474 17.7547 29.189 17.357 29.1892 16.9425C29.1894 16.5279 29.4749 16.1304 29.9828 15.8373ZM23.6035 29.0965L17.2242 25.4134C16.7166 25.1203 16.4315 24.7229 16.4315 24.3084C16.4315 23.894 16.7166 23.4965 17.2242 23.2035C17.7318 22.9105 18.4202 22.7458 19.138 22.7458C19.8558 22.7458 20.5442 22.9105 21.0518 23.2035L27.4311 26.8866C27.9387 27.1796 28.2238 27.5771 28.2238 27.9915C28.2238 28.406 27.9387 28.8034 27.4311 29.0965C26.9235 29.3895 26.2351 29.5541 25.5173 29.5541C24.7995 29.5541 24.1111 29.3895 23.6035 29.0965ZM29.9828 25.4134C29.7315 25.2682 29.5322 25.0958 29.3962 24.9061C29.2603 24.7165 29.1904 24.5132 29.1905 24.3079C29.1906 24.1026 29.2607 23.8994 29.3969 23.7098C29.5331 23.5201 29.7326 23.3479 29.9841 23.2028C30.2356 23.0577 30.5341 22.9426 30.8626 22.8641C31.1912 22.7856 31.5433 22.7452 31.8988 22.7453C32.2543 22.7454 32.6064 22.7859 32.9348 22.8645C33.2632 22.9431 33.5616 23.0583 33.813 23.2035C34.3205 23.4967 34.6055 23.8944 34.6053 24.3089C34.6051 24.7235 34.3196 25.121 33.8117 25.4141C33.3038 25.7071 32.615 25.8717 31.897 25.8716C31.1789 25.8714 30.4904 25.7066 29.9828 25.4134ZM36.3621 21.7303C35.8546 21.437 35.5695 21.0394 35.5698 20.6248C35.57 20.2102 35.8555 19.8127 36.3634 19.5197C36.8713 19.2266 37.5601 19.0621 38.2781 19.0622C38.9962 19.0623 39.6847 19.2272 40.1923 19.5204C40.6998 19.8136 40.9849 20.2113 40.9846 20.6259C40.9844 21.0404 40.6989 21.438 40.191 21.731C39.6831 22.024 38.9944 22.1886 38.2763 22.1885C37.5582 22.1883 36.8697 22.0235 36.3621 21.7303ZM29.9828 32.7796C29.4753 32.4863 29.1902 32.0887 29.1905 31.6741C29.1907 31.2595 29.4762 30.862 29.9841 30.569C30.492 30.2759 31.1807 30.1114 31.8988 30.1115C32.6168 30.1116 33.3054 30.2765 33.813 30.5697C34.0643 30.7149 34.2636 30.8872 34.3996 31.0769C34.5355 31.2666 34.6054 31.4699 34.6053 31.6751C34.6052 31.8804 34.535 32.0837 34.3989 32.2733C34.2627 32.4629 34.0632 32.6352 33.8117 32.7803C33.5602 32.9254 33.2617 33.0405 32.9331 33.119C32.6046 33.1975 32.2525 33.2378 31.897 33.2377C31.5414 33.2377 31.1894 33.1972 30.861 33.1186C30.5325 33.0399 30.2341 32.9247 29.9828 32.7796ZM36.3621 29.0965C36.1108 28.9513 35.9115 28.7789 35.7755 28.5892C35.6396 28.3996 35.5697 28.1963 35.5698 27.991C35.5699 27.7857 35.6401 27.5825 35.7762 27.3929C35.9124 27.2032 36.1119 27.031 36.3634 26.8859C36.6149 26.7408 36.9134 26.6257 37.242 26.5472C37.5705 26.4687 37.9226 26.4283 38.2781 26.4284C38.6336 26.4285 38.9857 26.469 39.3141 26.5476C39.6426 26.6262 39.9409 26.7414 40.1923 26.8866C40.6998 27.1798 40.9849 27.5775 40.9846 27.992C40.9844 28.4066 40.6989 28.8041 40.191 29.0972C39.6831 29.3902 38.9944 29.5548 38.2763 29.5547C37.5583 29.5545 36.8697 29.3897 36.3621 29.0965ZM42.7414 25.4134C42.2339 25.1201 41.9489 24.7225 41.9491 24.3079C41.9493 23.8933 42.2348 23.4958 42.7427 23.2028C43.2506 22.9097 43.9394 22.7452 44.6574 22.7453C45.3755 22.7454 46.064 22.9103 46.5716 23.2035C47.0792 23.4967 47.3642 23.8944 47.3639 24.3089C47.3637 24.7235 47.0782 25.121 46.5703 25.4141C46.0624 25.7071 45.3737 25.8717 44.6556 25.8716C43.9376 25.8714 43.249 25.7066 42.7414 25.4134ZM53.5863 21.362C52.9095 21.7527 51.9916 21.9722 51.0345 21.9722C50.0775 21.9722 49.1596 21.7527 48.4828 21.362L37.0001 14.7324C36.3233 14.3416 35.9431 13.8117 35.9431 13.2591C35.9431 12.7066 36.3233 12.1766 37.0001 11.7859L39.5518 10.3127C40.2286 9.92193 41.1464 9.70243 42.1035 9.70243C43.0606 9.70243 43.9785 9.92193 44.6552 10.3127L56.138 16.9422C56.8148 17.333 57.195 17.8629 57.195 18.4155C57.195 18.968 56.8148 19.498 56.138 19.8887L53.5863 21.362Z" fill="#FFD962"/>
</g>
<defs>
<clipPath id="clip0_15_1637">
<rect width="42.7239" height="42.7239" fill="white" transform="matrix(0.866025 0.5 -0.866025 0.5 37 0)"/>
</clipPath>
</defs>
</svg>
