<svg width="216" height="154" viewBox="0 0 216 154" fill="none" xmlns="http://www.w3.org/2000/svg">
<path d="M7.5 53.7033V30L155.467 117.517C165.286 123.325 177.55 123.06 187.11 116.835L215 98.673V111.5L214.757 116.843C214.594 120.425 212.838 123.746 209.97 125.898L188.286 142.16C178.705 149.346 165.769 150.145 155.377 144.193L12.5301 62.3809C9.41915 60.5991 7.5 57.2884 7.5 53.7033Z" fill="#DE132A"/>
<rect width="197" height="60" rx="15" transform="matrix(0.866025 0.5 -0.866025 0.5 51.9614 0)" fill="#FF3030"/>
<path d="M39.2828 36.36C42.4698 38.2 46.3496 39.32 50.8876 39.38L51.0261 42.46L56.9151 45.86L56.3262 31.56L61.2799 34.42L65.7832 32.94L56.0491 27.32C56.0144 26.78 56.153 26.18 56.9151 25.74C57.7811 25.24 59.2707 25.74 60.2753 26.32C61.9381 27.28 63.0466 28.8 63.4969 29.42L67.4806 27.12C66.476 25.82 64.7786 24.68 63.0466 23.68C59.5825 21.68 55.3216 21.46 52.6889 22.98C51.5804 23.62 51.0608 24.32 50.7837 25.28C46.2457 24.06 41.3613 24.08 37.9318 26.06C33.5671 28.58 32.805 32.62 39.2828 36.36ZM43.0241 28.84C44.8947 27.76 47.2156 27.58 50.5758 28.76L50.8183 36.38C48.3934 36.26 45.7261 35.48 43.7862 34.36C41.1188 32.82 39.9064 30.64 43.0241 28.84ZM59.7654 55.1056L94.2679 47.5056L89.2449 44.6056L74.8689 48.4256L81.3121 40.0256L76.0467 36.9856L67.7675 50.0856L54.9157 52.3056L59.7654 55.1056ZM104.064 63.4414L97.3783 69.2614L102.02 71.9414L115.911 59.9614L114.387 59.0814L96.2351 61.0014L99.5953 50.5414L98.0364 49.6414L77.2865 57.6614L81.963 60.3614L91.8357 56.4214L89.3069 65.0014L104.064 63.4414ZM138.884 73.265L134.104 70.505L127.349 74.405L120.871 70.665L127.626 66.765L122.846 64.005L105.594 73.965L110.375 76.725L117.13 72.825L123.608 76.565L116.853 80.465L121.633 83.225L138.884 73.265ZM142.961 95.5386L147.741 98.2986L164.993 88.3386L160.212 85.5786L142.961 95.5386ZM126.264 85.8986L134.612 90.7186C139.012 93.2586 143.827 93.2786 147.395 91.2186C150.686 89.3186 150.513 86.4186 145.905 83.7586C144.832 83.1386 143.862 82.6986 142.268 82.1786L148.296 78.6986L143.515 75.9386L126.264 85.8986ZM138.908 84.1186C140.016 84.4786 140.813 84.8186 141.783 85.3786C143.792 86.5386 144.277 87.6586 142.753 88.5386C141.471 89.2786 139.566 89.4586 137.384 88.1986L134.612 86.5986L138.908 84.1186ZM179.573 95.3167C183.211 97.4167 188.13 97.6167 191.802 95.5367L188.06 93.3767C186.467 94.2967 184.596 94.2967 182.968 93.3567C181.34 92.4167 181.34 91.3367 182.933 90.4167L179.192 88.2567C175.59 90.3767 175.936 93.2167 179.573 95.3167ZM186.051 100.497L184.284 99.4767L164.4 99.1967L174.1 93.5967L169.631 91.0167L152.38 100.977L154.147 101.997L174.031 102.277L164.331 107.877L168.8 110.457L186.051 100.497Z" fill="white"/>
</svg>
