<svg width="315" height="204" viewBox="0 0 315 204" fill="none" xmlns="http://www.w3.org/2000/svg">
<rect width="279" height="84" rx="15" transform="matrix(0.866025 0.5 -0.866025 0.5 72.7461 0)" fill="#FF3030"/>
<path d="M49.8311 48.79C54.6115 51.55 60.4312 53.23 67.2382 53.32L67.446 57.94L76.2795 63.04L75.3962 41.59L82.8266 45.88L89.5816 43.66L74.9805 35.23C74.9285 34.42 75.1363 33.52 76.2795 32.86C77.5785 32.11 79.8129 32.86 81.3198 33.73C83.8139 35.17 85.4767 37.45 86.1522 38.38L92.1278 34.93C90.6209 32.98 88.0748 31.27 85.4767 29.77C80.2805 26.77 73.8893 26.44 69.9402 28.72C68.2774 29.68 67.498 30.73 67.0823 32.17C60.2753 30.34 52.9488 30.37 47.8046 33.34C41.2574 37.12 40.1143 43.18 49.8311 48.79ZM55.4429 37.51C58.2488 35.89 61.7303 35.62 66.7705 37.39L67.1343 48.82C63.497 48.64 59.4959 47.47 56.5861 45.79C52.585 43.48 50.7664 40.21 55.4429 37.51ZM80.555 76.9084L132.309 65.5084L124.774 61.1584L103.21 66.8884L112.875 54.2884L104.977 49.7284L92.5581 69.3784L73.2803 72.7084L80.555 76.9084ZM147.003 89.4121L136.974 98.1421L143.937 102.162L164.774 84.1921L162.487 82.8721L135.259 85.7521L140.3 70.0621L137.961 68.7121L106.837 80.7421L113.851 84.7921L128.66 78.8821L124.867 91.7521L147.003 89.4121ZM199.233 104.148L192.063 100.008L181.93 105.858L172.213 100.248L182.346 94.3975L175.175 90.2575L149.298 105.198L156.469 109.338L166.602 103.488L176.318 109.098L166.186 114.948L173.357 119.088L199.233 104.148ZM205.348 137.558L212.519 141.698L238.396 126.758L231.225 122.618L205.348 137.558ZM180.303 123.098L192.826 130.328C199.425 134.138 206.647 134.168 211.999 131.078C216.936 128.228 216.676 123.878 209.765 119.888C208.154 118.958 206.699 118.298 204.309 117.518L213.35 112.298L206.18 108.158L180.303 123.098ZM199.269 120.428C200.932 120.968 202.127 121.478 203.582 122.318C206.595 124.058 207.323 125.738 205.036 127.058C203.114 128.168 200.256 128.438 196.982 126.548L192.826 124.148L199.269 120.428ZM260.267 137.225C265.723 140.375 273.101 140.675 278.609 137.555L272.997 134.315C270.607 135.695 267.801 135.695 265.359 134.285C262.917 132.875 262.917 131.255 265.307 129.875L259.695 126.635C254.291 129.815 254.811 134.075 260.267 137.225ZM269.984 144.995L267.333 143.465L237.508 143.045L252.057 134.645L245.354 130.775L219.477 145.715L222.127 147.245L251.953 147.665L237.404 156.065L244.107 159.935L269.984 144.995Z" fill="white"/>
<path d="M8.00006 62.7227V42L227.094 168.401C236.326 173.727 247.69 173.755 256.948 168.475L306 140.5V153.327V159.678C306 163.908 303.773 167.826 300.138 169.989L258.103 195.01C248.776 200.562 237.177 200.642 227.773 195.22L13.005 71.3858C9.90819 69.6002 8.00006 66.2974 8.00006 62.7227Z" fill="#DE132A"/>
</svg>
