<svg width="75" height="66" viewBox="0 0 75 66" fill="none" xmlns="http://www.w3.org/2000/svg">
<path d="M0.239969 58.2761C-0.118953 58.6959 -0.0696405 59.3271 0.350113 59.6861L7.19039 65.535C7.61014 65.894 8.24138 65.8447 8.60031 65.4249C8.95923 65.0051 8.90992 64.3739 8.49016 64.015L2.40992 58.8159L7.60902 52.7356C7.96794 52.3159 7.91863 51.6846 7.49887 51.3257C7.07912 50.9668 6.44788 51.0161 6.08895 51.4359L0.239969 58.2761ZM73.018 0.736941C69.3854 19.6024 63.642 32.8588 52.7866 41.9166C41.9107 50.9915 25.7397 55.9903 0.922117 57.9291L1.07788 59.923C26.0331 57.9735 42.712 52.9276 54.0679 43.4522C65.4444 33.9597 71.3147 20.1603 74.982 1.11511L73.018 0.736941Z" fill="black"/>
</svg>
