<svg width="113" height="98" viewBox="0 0 113 98" fill="none" xmlns="http://www.w3.org/2000/svg">
<path d="M0.738757 89.7487C0.380619 90.1692 0.431111 90.8003 0.851534 91.1585L7.70272 96.9947C8.12315 97.3528 8.75429 97.3023 9.11243 96.8819C9.47057 96.4615 9.42008 95.8303 8.99966 95.4722L2.90971 90.2844L8.09744 84.1945C8.45558 83.7741 8.40509 83.1429 7.98466 82.7848C7.56424 82.4266 6.93309 82.4771 6.57495 82.8976L0.738757 89.7487ZM110.517 0.712421C105.033 29.8769 96.3437 50.4813 79.8504 64.5745C63.3409 78.6814 38.8481 86.4062 1.42025 89.4004L1.57975 91.394C39.1519 88.3883 64.1591 80.613 81.1496 66.095C98.1563 51.5631 106.967 30.4175 112.483 1.08201L110.517 0.712421Z" fill="black"/>
</svg>
