<svg width="210" height="149" viewBox="0 0 210 149" fill="none" xmlns="http://www.w3.org/2000/svg">
<path d="M209.5 140.975C209.819 140.524 209.712 139.9 209.261 139.581L201.914 134.384C201.463 134.065 200.839 134.172 200.52 134.623C200.201 135.073 200.308 135.698 200.759 136.016L207.29 140.636L202.67 147.167C202.351 147.618 202.458 148.242 202.909 148.561C203.36 148.88 203.984 148.773 204.303 148.322L209.5 140.975ZM31.0093 0.159106C-1.27552 29.6694 -9.75956 74.1381 16.6572 106.715C43.009 139.211 103.746 159.401 208.853 141.383L208.515 139.412C103.622 157.393 43.8589 137.084 18.2107 105.455C-7.37253 73.9064 0.643444 30.625 32.3587 1.63533L31.0093 0.159106Z" fill="black"/>
</svg>
