<svg width="59" height="50" viewBox="0 0 59 50" fill="none" xmlns="http://www.w3.org/2000/svg">
<path d="M58.6864 42.7272C59.088 42.3481 59.1063 41.7152 58.7272 41.3136L52.5494 34.7688C52.1703 34.3671 51.5374 34.3489 51.1358 34.728C50.7341 35.1071 50.7159 35.74 51.095 36.1416L56.5864 41.9592L50.7688 47.4506C50.3671 47.8297 50.3489 48.4626 50.728 48.8642C51.1071 49.2659 51.74 49.2841 52.1416 48.905L58.6864 42.7272ZM0.00772214 0.624035C2.0589 17.0334 12.2459 27.5233 24.0215 33.9406C35.7732 40.3448 49.1854 42.7462 57.9712 42.9996L58.0288 41.0004C49.4812 40.7538 36.3935 38.4052 24.9785 32.1844C13.5874 25.9767 3.9411 15.9666 1.99228 0.375965L0.00772214 0.624035Z" fill="black"/>
</svg>
