<svg width="82" height="105" viewBox="0 0 82 105" fill="none" xmlns="http://www.w3.org/2000/svg">
<path d="M81.6898 97.65C82.0897 97.269 82.1049 96.636 81.724 96.2362L75.5153 89.7206C75.1343 89.3208 74.5013 89.3055 74.1015 89.6865C73.7017 90.0675 73.6864 90.7005 74.0674 91.1003L79.5862 96.8919L73.7946 102.411C73.3948 102.792 73.3795 103.425 73.7605 103.825C74.1415 104.224 74.7745 104.24 75.1743 103.859L81.6898 97.65ZM0.000332654 0.951817C0.499482 20.2982 3.40872 44.0989 14.8717 63.2944C26.3833 82.5712 46.4569 97.0931 80.9759 97.9257L81.0241 95.9263C47.1613 95.1095 27.7329 80.9304 16.5889 62.269C5.39626 43.5263 2.49637 20.1518 1.99967 0.900233L0.000332654 0.951817Z" fill="black"/>
</svg>
