<svg width="152" height="155" viewBox="0 0 152 155" fill="none" xmlns="http://www.w3.org/2000/svg">
<path d="M151.207 147.604C151.598 147.214 151.598 146.581 151.207 146.19L144.843 139.826C144.453 139.436 143.82 139.436 143.429 139.826C143.038 140.217 143.038 140.85 143.429 141.24L149.086 146.897L143.429 152.554C143.038 152.945 143.038 153.578 143.429 153.968C143.82 154.359 144.453 154.359 144.843 153.968L151.207 147.604ZM29.1941 0.805291C-2.12629 43.4524 -8.47195 80.3773 11.8336 106.672C21.9405 119.76 38.5581 130.059 61.6305 137.087C84.708 144.117 114.313 147.897 150.5 147.897V145.897C114.437 145.897 85.0422 142.128 62.2133 135.174C39.3795 128.218 23.1846 118.099 13.4165 105.45C-6.028 80.2699 -0.373653 44.4448 30.806 1.98914L29.1941 0.805291Z" fill="black"/>
</svg>
