<svg width="190" height="136" viewBox="0 0 190 136" fill="none" xmlns="http://www.w3.org/2000/svg">
<path d="M8 89.3365V68L73 103L182 42V61.9804C182 67.2638 179.22 72.1575 174.683 74.8636L88.1142 126.487C78.7816 132.052 67.1692 132.136 57.7572 126.706L15.5042 102.329C10.8608 99.6505 8 94.6972 8 89.3365Z" fill="#25A072"/>
<rect width="135" height="84" rx="15" transform="matrix(0.866025 -0.5 0.866025 0.5 0 67.5)" fill="#29B37F"/>
<path d="M62.1633 65.79C58.0583 68.16 56.3436 71.07 57.0191 74.28C49.2768 68.25 59.7211 62.22 65.229 57.66L58.4221 53.73C44.3925 65.19 40.3914 72.36 54.1093 80.28C63.0466 85.44 74.3743 86.58 84.4028 80.79C92.301 76.23 91.6774 69.93 84.7146 65.91C77.9076 61.98 68.8144 61.95 62.1633 65.79ZM77.6478 77.55C73.4909 79.95 67.7232 79.92 62.7349 77.04C61.9555 74.85 63.3584 72.12 66.2683 70.44C69.8016 68.4 74.686 68.22 78.3233 70.32C81.7008 72.27 81.3891 75.39 77.6478 77.55ZM117.983 52.8223C116.061 54.9523 113.878 57.0523 111.28 58.5523C106.864 61.1023 101.927 62.3323 97.7184 60.5623L116.425 49.7623C115.541 49.0723 114.034 48.0223 112.943 47.3923C106.188 43.4923 96.6792 41.8423 87.5859 47.0923C80.5191 51.1723 78.2328 57.5323 87.5339 62.9023C95.2762 67.3723 105.928 68.3623 116.217 62.4223C119.438 60.5623 122.608 58.1323 123.595 56.0623L117.983 52.8223ZM92.7301 57.9823C89.1967 55.5823 89.5085 52.7623 93.4575 50.4823C96.7831 48.5623 101.044 48.3823 105.201 50.7823L92.7301 57.9823ZM112.678 40.8855C113.769 39.5955 117.042 36.7455 119.796 35.1555C122.239 33.7455 125.252 32.5455 127.435 33.8055C129.097 34.7655 129.253 35.9355 126.603 37.4655L119.537 41.5455L124.525 44.4255L131.644 40.3155C134.761 38.5155 137.048 38.4555 138.71 39.4155C141.049 40.7655 138.71 42.7155 135.852 44.3655C132.839 46.1055 128.786 47.5455 125.148 48.3255L131.28 51.8655C134.501 51.2655 140.217 48.5655 143.283 46.7955C149.103 43.4355 152.272 39.0855 146.401 35.6955C143.127 33.8055 138.814 33.5355 134.813 35.1255C136.892 32.9655 136.32 30.5955 133.358 28.8855C128.578 26.1255 122.083 27.1155 115.899 30.6855C113.145 32.2755 107.897 35.8455 106.858 37.5255L112.678 40.8855Z" fill="white"/>
</svg>
