<svg width="102" height="74" viewBox="0 0 102 74" fill="none" xmlns="http://www.w3.org/2000/svg">
<path d="M32.1857 69.6838L10.3743 58.304C7.0712 56.5806 5 53.1638 5 49.4382V47.5V36.5L39.5 54.5L96.5 23V31V34.7345C96.5 38.3029 94.5985 41.6008 91.5104 43.3887L46.6397 69.3665C42.1939 71.9403 36.7402 72.0601 32.1857 69.6838Z" fill="#25A072"/>
<rect width="71" height="46" rx="10" transform="matrix(0.866025 -0.5 0.866025 0.5 0 35.5)" fill="#29B37F"/>
<path d="M33.0961 35.088C30.9067 36.352 29.9922 37.904 30.3525 39.616C26.2233 36.4 31.7936 33.184 34.7311 30.752L31.1007 28.656C23.6183 34.768 21.4844 38.592 28.8006 42.816C33.5672 45.568 39.6086 46.176 44.9571 43.088C49.1695 40.656 48.8369 37.296 45.1234 35.152C41.493 33.056 36.6433 33.04 33.0961 35.088ZM41.3545 41.36C39.1374 42.64 36.0613 42.624 33.4009 41.088C32.9852 39.92 33.7335 38.464 35.2854 37.568C37.1698 36.48 39.7748 36.384 41.7147 37.504C43.5161 38.544 43.3498 40.208 41.3545 41.36ZM62.8668 28.1719C61.8414 29.3079 60.6775 30.4279 59.2918 31.2279C56.9362 32.5879 54.3035 33.2439 52.0588 32.2999L62.0354 26.5399C61.5643 26.1719 60.7606 25.6119 60.1786 25.2759C56.576 23.1959 51.5045 22.3159 46.6548 25.1159C42.8858 27.2919 41.6665 30.6839 46.6271 33.5479C50.7563 35.9319 56.4374 36.4599 61.9245 33.2919C63.6427 32.2999 65.3332 31.0039 65.8597 29.8999L62.8668 28.1719ZM49.3983 30.9239C47.5139 29.6439 47.6801 28.1399 49.7863 26.9239C51.5599 25.8999 53.8324 25.8039 56.0494 27.0839L49.3983 30.9239ZM60.037 21.8056C60.619 21.1176 62.3649 19.5976 63.8337 18.7496C65.1362 17.9976 66.7435 17.3576 67.9075 18.0296C68.7943 18.5416 68.8774 19.1656 67.4641 19.9816L63.6951 22.1576L66.3555 23.6936L70.1522 21.5016C71.815 20.5416 73.0343 20.5096 73.9211 21.0216C75.1682 21.7416 73.9211 22.7816 72.3969 23.6616C70.7896 24.5896 68.628 25.3576 66.6881 25.7736L69.9582 27.6616C71.6764 27.3416 74.7248 25.9016 76.3599 24.9576C79.4637 23.1656 81.1542 20.8456 78.0226 19.0376C76.2767 18.0296 73.9766 17.8856 71.8427 18.7336C72.9512 17.5816 72.6464 16.3176 71.0667 15.4056C68.5171 13.9336 65.053 14.4616 61.7552 16.3656C60.2864 17.2136 57.4874 19.1176 56.9332 20.0136L60.037 21.8056Z" fill="white"/>
</svg>
