<svg width="215" height="28" fill="none" xmlns="http://www.w3.org/2000/svg"><path d="m11.906 14.781 7.688-12.594H14.78l-5 8.813-4.969-8.813H0l7.688 12.594v7.156h4.218v-7.156ZM32.99 21.938v-9.72c0-4.874-2.969-6.374-6.687-6.374-2.375 0-4.469.343-6.219.906v3.75c1.188-.594 3.094-1.188 5.625-1.188 1.5 0 3.156.438 3.156 2.376v.562c-.937-.375-2.531-.594-3.781-.594-3.563 0-6.688 1.5-6.688 5.469 0 2.656 1.813 5.156 5.125 5.156 2.782 0 4.47-.593 5.97-2.5l.405 2.157h3.094ZM28.865 17c-.812 1.375-2.343 2.125-3.75 2.125-1.531 0-2.406-.906-2.406-2.094 0-1.718 1.063-2.531 3.313-2.531 1.125 0 2.093.25 2.843.719V17ZM36.561 21.938h4.313V11.53c.75-1.312 1.906-2.125 3.406-2.219 1.593 0 2.781.626 2.781 3.094v9.531h4.313V11.595c0-3.781-2.25-5.75-5.5-5.75-2.126 0-4.344.593-5.5 3.093V6.376H36.56v15.563ZM66.544 8.094c-1.218-1.563-3.125-2.25-5.03-2.25-3.563 0-7.563 2.687-7.563 8.25 0 4.5 2.562 8.156 7.218 8.156 2 0 3.594-.563 5.032-1.938v.407c0 3.406-3.375 3.593-4.938 3.593-2.031 0-3.625-.5-5.375-1.437v3.781c1.5.875 3.344 1.344 5.813 1.344 4.625 0 8.625-2.469 8.687-8.531V6.375h-3.594l-.25 1.719Zm-4.312 1.25c1.312 0 2.75.562 3.969 1.687v5.563c-1 1.656-2.594 2.25-4.094 2.25-2.625 0-3.813-2.219-3.813-4.625 0-2.969 1.282-4.875 3.938-4.875ZM74.286 21.938h4.344V6.374h-4.344v15.563Zm-.343-19.47c0 1.407 1.125 2.5 2.5 2.5 1.406 0 2.5-1.124 2.5-2.5 0-1.374-1.094-2.468-2.5-2.468-1.375 0-2.5 1.094-2.5 2.469ZM92.738.012h-6.049l10.54 12.6-10.54 12.601h6.049l10.333-12.6L92.738.011Z" fill="#FF3030"/><path d="M119.648 9.688V6.374h-4.469c0-2.156 1.375-2.469 2.782-2.469.843 0 1.687.156 2.468.375V.812a17.809 17.809 0 0 0-3.062-.25c-3.125 0-6.563.813-6.563 6.625v14.75h4.375V9.688h4.469ZM122.547 21.938h4.344V6.374h-4.344v15.563Zm-.344-19.47c0 1.407 1.125 2.5 2.5 2.5 1.406 0 2.5-1.124 2.5-2.5 0-1.374-1.094-2.468-2.5-2.468-1.375 0-2.5 1.094-2.5 2.469ZM130.615 21.938h4.313V11.53c.75-1.312 1.906-2.125 3.406-2.219 1.594 0 2.781.626 2.781 3.094v9.531h4.313V11.595c0-3.781-2.25-5.75-5.5-5.75-2.125 0-4.344.593-5.5 3.093V6.376h-3.813v15.563ZM162.598 21.938v-9.72c0-4.874-2.968-6.374-6.687-6.374-2.375 0-4.469.343-6.219.906v3.75c1.188-.594 3.094-1.188 5.625-1.188 1.5 0 3.156.438 3.156 2.376v.562c-.937-.375-2.531-.594-3.781-.594-3.562 0-6.687 1.5-6.687 5.469 0 2.656 1.812 5.156 5.125 5.156 2.781 0 4.468-.593 5.968-2.5l.407 2.157h3.093ZM158.473 17c-.812 1.375-2.343 2.125-3.75 2.125-1.531 0-2.406-.906-2.406-2.094 0-1.718 1.063-2.531 3.313-2.531 1.125 0 2.093.25 2.843.719V17ZM166.169 21.938h4.313V11.53c.75-1.312 1.906-2.125 3.406-2.219 1.594 0 2.781.626 2.781 3.094v9.531h4.313V11.595c0-3.781-2.25-5.75-5.5-5.75-2.125 0-4.344.593-5.5 3.093V6.376h-3.813v15.563ZM196.621 6.688c-1.25-.594-3.25-.844-4.5-.844-5.25 0-8.562 3.375-8.562 8.406 0 5.156 3.656 8.219 8.406 8.219 1.406 0 3.406-.282 4.844-1v-3.75c-1.313.781-3.219 1.093-4.813 1.093-2.343 0-4.031-1.718-4.031-4.687 0-3.031 1.594-4.656 4.5-4.656 1.563 0 3.25.406 4.156.969v-3.75ZM212.874 18c-1.688.531-3.438.969-5 .969-2.657 0-4.782-.844-5.125-3.032h11.25c.093-.624.187-1.624.187-2.28 0-4.063-2-7.782-7.469-7.782-4.25 0-8.25 2.625-8.25 8.219 0 4.656 2.688 8.375 8.875 8.375 1.938 0 4.157-.313 5.532-1.094V18Zm-10.282-4.906c.188-2.313 1.75-3.688 4.125-3.688 2 0 3.375 1.188 3.375 3.688h-7.5Z" fill="#212121"/></svg>